<?xml version="1.0" encoding="utf-8"?>
<!-- Generator: Adobe Illustrator 25.0.1, SVG Export Plug-In . SVG Version: 6.00 Build 0)  -->
<svg version="1.1" id="Layer_1" xmlns="http://www.w3.org/2000/svg" xmlns:xlink="http://www.w3.org/1999/xlink" x="0px" y="0px"
	 viewBox="0 0 530 708.8" style="enable-background:new 0 0 530 708.8;" xml:space="preserve">
<style type="text/css">
	.st0{fill:#FFFFFF;}
</style>
<path class="st0" d="M467.6,314.4c-67.4,0-134.8,0-202.3,0c-68.6,0-137.1-0.1-205.7,0.1c-33.1,0.1-59.3,25.5-59.5,58
	C0,463.8-0.1,555.2,0.2,646.6c0.1,34.9,29.1,62.6,63.8,62.2s61.7-28.2,61.7-63.2c-0.1-58.7-0.1-117.3,0-176c-0.1-3.7,0.1-7.4,0.6-11
	c2.5-19,18.8-33.1,38-33c22,0,38.1,17.3,38.1,41.1c0.1,59.8,0.1,119.6,0,179.4c0,15.7,4.9,29.4,15,41.1
	c17.2,19.9,45.6,26.7,70.3,17.3c24.1-9.2,39.2-31.9,39.2-58.8c0-59,0-117.9,0.1-176.8c0-11,2-21.3,9.5-29.9
	c10.8-12.2,27.8-16.7,42.3-11.1c15.4,5.9,24.7,19.3,24.7,36.8c0.1,59.8,0.2,119.6,0.1,179.4c0,36.4,26.8,64.5,61.9,64.6
	c36.7,0.2,64.1-27.2,64.1-64.2c0-89.4,0-178.8,0-268.2C529.7,338.9,505.1,314.4,467.6,314.4z"/>
<path class="st0" d="M61.5,267.9c68,0.2,135.9,0,203.9,0c67.7,0,135.4,0.2,203-0.1c42.1-0.1,68.7-33.9,59.9-75.1
	c-4.6-22.1-13.4-43.1-25.8-62C438.9,34.3,349.1-10.6,234.4,2.1C127.9,13.9,52.7,72,9.5,170c-5.8,13.3-9.3,29-8.6,43.3
	C2.6,246.1,28.1,267.8,61.5,267.9z"/>
</svg>
