<svg id="Layer_1" data-name="Layer 1" xmlns="http://www.w3.org/2000/svg" viewBox="0 0 529.99 708.75"><defs><style>.cls-1{fill:#fff;}</style></defs><path class="cls-1" d="M467.64,314.36q-101.13,0-202.27,0c-68.56,0-137.11-.14-205.66.08-33.09.1-59.34,25.53-59.45,58Q-.19,509.51.18,646.59C.29,681.51,29.33,709.24,64,708.75s61.73-28.24,61.69-63.15q-.1-88,0-176a78.75,78.75,0,0,1,.57-11,38,38,0,0,1,38-32.95c22,0,38.09,17.26,38.12,41.06q.1,89.68,0,179.38c0,15.66,4.89,29.39,15,41.12,17.19,19.88,45.56,26.72,70.26,17.31,24.13-9.2,39.21-31.88,39.21-58.8q0-88.43.09-176.84c0-11,2-21.34,9.54-29.89,10.81-12.22,27.79-16.66,42.32-11.12,15.41,5.87,24.69,19.28,24.73,36.83q.22,89.68.1,179.38c0,36.37,26.84,64.46,61.92,64.62,36.73.17,64.11-27.24,64.12-64.16q0-134.12,0-268.23C529.67,338.91,505.12,314.37,467.64,314.36Z"/><path class="cls-1" d="M61.52,267.86c68,.16,135.91.05,203.87,0,67.67,0,135.35.17,203-.06,42.1-.15,68.68-33.91,59.91-75.12a180,180,0,0,0-25.79-62C438.94,34.34,349.09-10.58,234.36,2.1,127.9,13.88,52.72,72,9.54,170,3.72,183.27.2,199,.93,213.32,2.59,246.05,28.14,267.79,61.52,267.86Z"/></svg>