<svg id="Layer_1" data-name="Layer 1" xmlns="http://www.w3.org/2000/svg" viewBox="0 0 3415.59 672.25"><defs><style>.cls-1{fill:#fff;}</style></defs><path class="cls-1" d="M1017,187.15c-54.63-18.32-106-12.33-150.78,29.54-36.64-31.65-66.37-41.51-114.42-38.3-71.67,4.79-121.49,57.84-121.47,129.49,0,45.29,0,90.57.35,135.86.16,23.51,15,38.74,36.42,38.29,20.42-.43,34.82-16,34.93-38.26.21-44.29,0-88.58.35-132.87.3-38.32,26-64,63.55-64.24,38.88-.2,62.47,23.57,62.66,63.7.22,44.29-.14,88.58.14,132.87.15,24.49,14,39,35.68,38.6,21.24-.42,35.37-15.8,35.48-39.32.2-44.29-.3-88.59.41-132.87.17-10.1,2.32-21,6.64-30,12.32-25.83,41.41-38,70.74-31.16,27.77,6.43,46.06,28.47,46.44,58.15.57,45.78-.32,91.58.66,137.34.19,9.16,4.11,19.58,9.62,27,8.76,11.76,25.25,14.13,39.56,8.18,15-6.23,22-18,22-34,.13-48.27.34-96.54.23-144.81C1096.13,247.64,1066.8,203.84,1017,187.15Z"/><path class="cls-1" d="M2531.14,182.63c-64.09,15.16-113.82,70.45-116,137.19-2.85,88-1.37,176.13-1,264.2.09,21.78,19.91,36.23,41.24,32.45,17.8-3.15,28.61-16.16,28.76-36.21.31-40.73.09-81.46.09-125,5.41,3.22,8.33,4.91,11.21,6.68,61.37,37.6,150.83,23,197.23-32.2,42.73-50.82,47.19-124.32,11.09-182.57C2669.32,191.55,2601.15,166.07,2531.14,182.63ZM2571.51,415c-46.35.09-85.06-36.86-85.53-81.63a85.8,85.8,0,0,1,85.53-86.8c47.67-.42,85.91,37,86.08,84.24C2657.77,377.58,2619.64,414.86,2571.51,415Z"/><path class="cls-1" d="M3009,201.11c-32.36-25.82-101.7-36.89-152.85,7,0-39.8.09-76.47,0-113.14-.08-24.46-13.53-39.68-34.76-39.77-21.83-.08-35.22,14.29-35.24,39q-.13,174,.18,348c0,25.36,12.57,39.21,34.62,39.42,21.54.21,35.1-15.4,35.17-40.77.13-43.32.09-86.64.31-130,0-5.9.35-12,1.89-17.66,8.86-32.61,38.71-51.66,73.36-47.26,34,4.32,53.37,27.34,53.49,63.91.14,45.81-.18,91.62.2,137.43.17,20.54,13.72,33.86,33.51,34.45,19.54.58,35.88-12.91,36-32.05.34-54.76,1.2-109.59-1.09-164.27C3052.36,251.48,3036.39,223,3009,201.11Z"/><path class="cls-1" d="M2323.46,227.58c-36.72-40.63-83.91-52.82-136.65-48.9-62.72,4.67-117.88,50.8-133.3,111.21-16.88,66.14,7.1,135.16,60.81,167.85,58.32,35.49,116.6,34.85,173.75-6.66,7.44,23.15,21.51,33.73,40,30.81s29.24-17.54,29.29-40.36c.09-42.8.51-85.6-.11-128.39C2356.78,280.62,2345.32,251.77,2323.46,227.58ZM2202.15,414.86c-48.22-.7-84.78-38.22-83.89-86.07.87-46.44,39.11-82.93,86.31-82.37,48.92.58,83.89,36.79,83.06,86C2286.82,380.41,2250.37,415.56,2202.15,414.86Z"/><path class="cls-1" d="M3415.23,309.75a110.52,110.52,0,0,0-5.38-32.09c-24.81-76.45-106.31-116.34-191.2-94.07-58.3,15.29-101.71,64.89-110.22,126-8.65,62,19.59,122.5,71.31,153,43.54,25.67,117.34,31.68,167.47-11.81,6.92,22.87,20.47,33.45,38.54,31.17,19.26-2.43,29.62-16,29.67-39.38C3415.53,398.26,3415.82,354,3415.23,309.75Zm-152.13,105c-47.93.24-85.45-36.18-85.53-83-.08-47.06,38.29-85.16,85.77-85.16,47.29,0,84.34,36.24,84.35,82.5C3347.7,377.83,3311.47,414.53,3263.1,414.77Z"/><path class="cls-1" d="M1425.22,181.79c-21.83-.26-36.76,15.56-36.8,39.64-.06,38.8-.06,77.6.38,116.4.56,50.07-32.85,82.06-82.88,78.83-38-2.46-63.21-29.44-63.19-67.45,0-43.78.17-87.56-.13-131.33-.15-21.15-15.06-35.85-35.57-36.15s-35.72,14.33-35.83,35.48c-.24,48.75-.62,97.51,0,146.26.68,50.29,33.84,96.78,81.74,112,48.88,15.55,95.2,9.64,136.63-25.23,8.79,24.6,21.93,34.37,40.61,31.51,19.4-3,29.21-16.79,29.22-41.68q0-109.68-.14-219.38C1459.24,197.21,1445.55,182,1425.22,181.79Z"/><path class="cls-1" d="M1729,321.37c-13.7-7.66-29.26-12.43-44.44-16.93-21.87-6.5-44.39-10.86-66.2-17.53-10.61-3.24-20.31-10-19.22-23.47,1-12.81,10.65-19.08,21.53-22,27.57-7.44,52.92-3.48,75.39,15.8,18.51,15.87,41.24,14.52,54.1-2,12.07-15.5,7.6-36-13.06-49.65-52-34.42-107.47-37.3-163.44-12-31.6,14.29-48.11,40.92-46.41,76.77,1.61,34,20.29,56.72,50.07,70,15.74,7,33.08,10.56,49.76,15.44,17.64,5.17,36.13,8.38,52.72,15.83,8,3.57,17.15,15,17.09,22.81s-10.27,16.32-17.25,23.3c-3.1,3.1-9.1,3.85-13.94,4.59-32.43,4.93-61.09-1.13-83.92-27.13-14-15.93-35.36-16.26-50.49-2.47-13.61,12.4-14.07,30.4-.24,46.57a124.89,124.89,0,0,0,20.82,19.09c26.45,19.4,57.2,24.51,96,25.56,22.69.19,51.9-2.28,78.3-17.48q41.44-23.87,42.95-72.1C1770.18,361.91,1757,337,1729,321.37Z"/><path class="cls-1" d="M1973.85,412.8c-5-.13-10,.13-14.94-.21-21.61-1.46-36.55-14-37.16-35.49-1.21-42.23-.35-84.52-.35-129,18.13,0,34.49.44,50.82-.11,20-.67,33.42-14.4,33.18-32.85s-13.84-31.23-34.18-31.47c-16.27-.19-32.55,0-50.2,0,0-26.8.35-51.59-.09-76.38s-18.7-40.44-42-36.61c-17.92,2.94-28.85,16.86-29,37.64-.19,24.69,0,49.39,0,73.63-28.19,4.55-39.09,14.2-39.37,33.11-.29,20.44,8,28.14,39.48,35.28,0,5.9,0,12.23,0,18.57,0,34.85-.58,69.71-.06,104.55,1,65.7,45.71,117.36,128.44,108,20.3-2.3,31.73-18.38,30.31-39.24C2007.45,424.48,1994.29,413.35,1973.85,412.8Z"/><path class="cls-1" d="M443.55,298.17q-95.93,0-191.85,0c-65,0-130-.14-195.07.07-31.38.1-56.28,24.22-56.38,55q-.43,130-.08,260c.1,33.13,27.65,59.43,60.5,59s58.56-26.79,58.52-59.9q-.1-83.46,0-166.93a75.18,75.18,0,0,1,.54-10.4,36.07,36.07,0,0,1,36.06-31.25c20.82,0,36.13,16.36,36.16,38.93q.09,85.08-.05,170.15c0,14.85,4.64,27.87,14.26,39,16.3,18.85,43.2,25.35,66.64,16.42C295.66,659.53,310,638,310,612.49q0-83.86.09-167.74c0-10.39,1.87-20.24,9-28.34,10.25-11.59,26.36-15.8,40.14-10.55,14.62,5.57,23.42,18.29,23.46,34.93q.21,85.07.09,170.14c0,34.49,25.46,61.14,58.73,61.29,34.84.17,60.81-25.83,60.82-60.85q0-127.22,0-254.41C502.38,321.45,479.1,298.18,443.55,298.17Z"/><path class="cls-1" d="M476.64,124C416.33,32.57,331.11-10,222.29,2,121.31,13.16,50,68.27,9.05,161.28,3.53,173.83.19,188.76.88,202.33c1.57,31,25.81,51.66,57.47,51.74,64.46.14,128.91,0,193.37,0,64.19,0,128.38.16,192.56-.07,39.93-.14,65.15-32.16,56.83-71.25A170.82,170.82,0,0,0,476.64,124Z"/></svg>