<svg id="Layer_1" data-name="Layer 1" xmlns="http://www.w3.org/2000/svg" viewBox="0 0 149.09 74.64"><defs><style>.cls-1{fill:#081f29;}.cls-2{fill:#e77a2c;}</style></defs><path class="cls-1" d="M0,0H11.54l.69,13.41h.37C16.67,6.47,23.47,0,35.64,0c9.89,0,17.45,6,20.57,14.63h.31a29.41,29.41,0,0,1,8.23-9.5C69.17,1.81,73.92,0,80.81,0c9.74,0,24.09,6.28,24.09,31.67v43H92V33.37c0-14.14-5.22-22.51-15.84-22.51-7.61,0-13.45,5.53-15.79,11.94a21.71,21.71,0,0,0-1.09,6.66V74.64h-13V30.84c0-11.62-5.13-20-15.16-20-8.27,0-14.34,6.6-16.55,13.25a21.14,21.14,0,0,0-1,6.54v44H0Z"/><circle class="cls-2" cx="131.93" cy="57.48" r="17.16"/></svg>